<svg width="13" height="15" viewBox="0 0 13 15" fill="none" xmlns="http://www.w3.org/2000/svg">
<path d="M10.5349 14.4141C10.1182 14.8047 9.69501 14.9935 9.26532 14.9805C8.83564 14.9674 8.39944 14.8698 7.95673 14.6875C7.51402 14.5052 7.07131 14.4076 6.62861 14.3945C6.1859 14.3815 5.73017 14.4792 5.26142 14.6875C4.66246 14.9479 4.17418 15.0456 3.79657 14.9805C3.41897 14.9154 3.0609 14.7266 2.72236 14.4141C1.88902 13.5547 1.251 12.6497 0.808293 11.6992C0.365585 10.7487 0.105168 9.80469 0.0270433 8.86719C-0.0510817 7.92969 0.0400641 7.07031 0.300481 6.28906C0.560897 5.50781 0.990585 4.8763 1.58954 4.39453C2.1885 3.91276 2.94371 3.64583 3.85517 3.59375C4.42808 3.61979 4.91637 3.73047 5.32001 3.92578C5.72366 4.12109 6.09475 4.23177 6.43329 4.25781C6.92808 4.15365 7.41637 4.00391 7.89814 3.80859C8.37991 3.61328 8.88121 3.52865 9.40204 3.55469C10.652 3.65885 11.5895 4.15365 12.2145 5.03906C11.5895 5.42969 11.1403 5.91146 10.8669 6.48438C10.5934 7.05729 10.4893 7.64323 10.5544 8.24219C10.6195 8.84115 10.8343 9.38802 11.1989 9.88281C11.5635 10.3776 12.0453 10.7552 12.6442 11.0156C12.4099 11.6406 12.1234 12.2461 11.7849 12.832C11.4463 13.418 11.0296 13.9453 10.5349 14.4141ZM6.35517 3.55469C6.30308 2.92969 6.42027 2.35677 6.70673 1.83594C6.99319 1.3151 7.3773 0.891927 7.85907 0.566406C8.34085 0.240885 8.86819 0.0520833 9.44111 0C9.51923 0.546875 9.45413 1.04167 9.24579 1.48438C9.03746 1.92708 8.76402 2.3112 8.42548 2.63672C8.08694 2.96224 7.72887 3.20964 7.35126 3.37891C6.97366 3.54818 6.64163 3.60677 6.35517 3.55469Z" fill="white"/>
</svg>
