<svg width="13" height="10" viewBox="0 0 13 10" fill="none" xmlns="http://www.w3.org/2000/svg">
<path d="M10.5 5.85156V1.17578C10.5 0.847656 10.3861 0.569661 10.1582 0.341797C9.93034 0.113932 9.66146 0 9.35156 0H1.17578C0.847656 0 0.569661 0.113932 0.341797 0.341797C0.113932 0.569661 0 0.847656 0 1.17578V5.85156C0 6.16146 0.113932 6.43034 0.341797 6.6582C0.569661 6.88607 0.847656 7 1.17578 7H9.35156C9.66146 7 9.93034 6.88607 10.1582 6.6582C10.3861 6.43034 10.5 6.16146 10.5 5.85156ZM5.25 5.25C4.9401 5.25 4.65299 5.17253 4.38867 5.01758C4.12435 4.86263 3.91016 4.65299 3.74609 4.38867C3.58203 4.12435 3.5 3.82812 3.5 3.5C3.5 3.1901 3.58203 2.90299 3.74609 2.63867C3.91016 2.37435 4.12435 2.16016 4.38867 1.99609C4.65299 1.83203 4.9401 1.75 5.25 1.75C5.57812 1.75 5.87435 1.83203 6.13867 1.99609C6.40299 2.16016 6.61263 2.37435 6.76758 2.63867C6.92253 2.90299 7 3.1901 7 3.5C7 3.82812 6.92253 4.12435 6.76758 4.38867C6.61263 4.65299 6.40299 4.86263 6.13867 5.01758C5.87435 5.17253 5.57812 5.25 5.25 5.25ZM12.8516 1.75V8.17578C12.8516 8.50391 12.7376 8.7819 12.5098 9.00977C12.2819 9.23763 12.0039 9.35156 11.6758 9.35156H1.75V8.17578H11.6758V1.75H12.8516Z" fill="#02C6C6"/>
</svg>
