<svg width="25" height="27" viewBox="0 0 25 27" fill="none" xmlns="http://www.w3.org/2000/svg">
<path d="M21.0625 26.2188C20.8958 26.2188 20.7396 26.1927 20.5938 26.1406C20.4479 26.0885 20.3125 26 20.1875 25.875L13.8125 19.5C13.6875 19.375 13.599 19.2396 13.5469 19.0938C13.4948 18.9479 13.4688 18.7917 13.4688 18.625C13.4688 18.4583 13.4948 18.3021 13.5469 18.1562C13.599 18.0104 13.6875 17.875 13.8125 17.75L16.4688 15.0938C16.5938 14.9688 16.7292 14.8802 16.875 14.8281C17.0208 14.776 17.1771 14.75 17.3438 14.75C17.5104 14.75 17.6667 14.776 17.8125 14.8281C17.9583 14.8802 18.0938 14.9688 18.2188 15.0938L24.5938 21.4688C24.7188 21.5938 24.8073 21.7292 24.8594 21.875C24.9115 22.0208 24.9375 22.1771 24.9375 22.3438C24.9375 22.5104 24.9115 22.6667 24.8594 22.8125C24.8073 22.9583 24.7188 23.0938 24.5938 23.2188L21.9375 25.875C21.8125 26 21.6771 26.0885 21.5312 26.1406C21.3854 26.1927 21.2292 26.2188 21.0625 26.2188ZM21.0625 23.25L21.9688 22.3438L17.375 17.75L16.4688 18.6562L21.0625 23.25ZM3.90625 26.25C3.73958 26.25 3.57812 26.2188 3.42188 26.1562C3.26562 26.0938 3.125 26 3 25.875L0.375 23.25C0.25 23.125 0.15625 22.9844 0.09375 22.8281C0.03125 22.6719 0 22.5104 0 22.3438C0 22.1771 0.03125 22.0208 0.09375 21.875C0.15625 21.7292 0.25 21.5938 0.375 21.4688L7 14.8438H9.65625L10.7188 13.7812L5.5625 8.625H3.78125L0 4.84375L3.53125 1.3125L7.3125 5.09375V6.875L12.4688 12.0312L16.0938 8.40625L14.75 7.0625L16.5 5.3125H12.9688L12.0938 4.4375L16.5312 0L17.4062 0.875V4.40625L19.1562 2.65625L23.5938 7.09375C23.9479 7.44792 24.2188 7.84896 24.4062 8.29688C24.5938 8.74479 24.6875 9.21875 24.6875 9.71875C24.6875 10.2188 24.5938 10.6979 24.4062 11.1562C24.2188 11.6146 23.9479 12.0208 23.5938 12.375L20.9375 9.71875L19.1875 11.4688L17.875 10.1562L11.4062 16.625V19.25L4.78125 25.875C4.65625 26 4.52083 26.0938 4.375 26.1562C4.22917 26.2188 4.07292 26.25 3.90625 26.25ZM3.90625 23.25L9.21875 17.9375V17.0312H8.3125L3 22.3438L3.90625 23.25ZM3.90625 23.25L3 22.3438L3.46875 22.7812L3.90625 23.25ZM21.0625 23.25L21.9688 22.3438L21.0625 23.25Z" fill="#94A3B8"/>
</svg>
